<svg width="48" height="48" viewBox="0 0 48 48" fill="none" xmlns="http://www.w3.org/2000/svg">
<path fill-rule="evenodd" clip-rule="evenodd" d="M35.9949 3.21516C39.6433 5.32145 42.673 8.35095 44.7796 11.9992C46.8859 15.6474 47.9948 19.7856 47.995 23.9981C47.9952 28.2106 46.8867 32.349 44.7809 35.9974C42.675 39.6458 39.646 42.6756 35.9982 44.7825C32.3505 46.8894 28.2124 47.999 23.9999 48C19.787 47.9999 15.6483 46.8908 11.9999 44.7843C8.35141 42.6778 5.32172 39.648 3.21531 35.9995C1.10889 32.3509 -2.67556e-05 28.2122 4.83851e-10 23.9993C2.674e-05 19.7893 1.10747 15.6534 3.21111 12.0067L3.21069 11.9992C5.31726 8.35095 8.347 5.32145 11.9954 3.21516C15.6438 1.10887 19.7824 0 23.9952 0C28.2079 0 32.3465 1.10887 35.9949 3.21516ZM28.5922 35.0863C27.1363 35.6893 25.5758 35.9997 23.9999 35.9997C20.8172 35.9997 17.7649 34.7354 15.5144 32.4849C13.2639 30.2344 11.9996 27.1821 11.9996 23.9995C11.9996 20.8168 13.2639 17.7645 15.5144 15.514C17.7649 13.2635 20.8172 11.9992 23.9999 11.9992C25.5758 11.9992 27.1363 12.3096 28.5922 12.9127C30.0481 13.5157 31.371 14.3997 32.4854 15.514C33.5997 16.6283 34.4836 17.9512 35.0867 19.4072C35.6898 20.8631 36.0002 22.4236 36.0002 23.9995C36.0002 25.5754 35.6898 27.1358 35.0867 28.5918C34.4836 30.0477 33.5997 31.3706 32.4854 32.4849C31.371 33.5993 30.0481 34.4832 28.5922 35.0863Z" fill="black"/>
<path d="M23.9998 33.5037C25.2479 33.5037 26.4838 33.2578 27.6369 32.7802C28.79 32.3026 29.8378 31.6025 30.7203 30.7199C31.6029 29.8374 32.3029 28.7897 32.7806 27.6366C33.2582 26.4834 33.504 25.2476 33.504 23.9994C33.504 22.7513 33.2582 21.5154 32.7806 20.3623C32.3029 19.2092 31.6029 18.1615 30.7203 17.279C29.8378 16.3964 28.79 15.6963 27.6369 15.2187C26.4838 14.7411 25.2479 14.4952 23.9998 14.4952C21.4791 14.4952 19.0617 15.4966 17.2793 17.279C15.4969 19.0613 14.4956 21.4788 14.4956 23.9994C14.4956 26.5201 15.4969 28.9376 17.2793 30.7199C19.0617 32.5023 21.4791 33.5037 23.9998 33.5037V33.5037Z" fill="black"/>
</svg>
