<svg width="48" height="48" viewBox="0 0 48 48" fill="none" xmlns="http://www.w3.org/2000/svg">
<path fill-rule="evenodd" clip-rule="evenodd" d="M24 0C37.2548 0 48 10.7452 48 24C48 37.2548 37.2548 48 24 48C10.7452 48 0 37.2548 0 24C0 10.7452 10.7452 0 24 0ZM11.3362 13.3353C13.875 12.6757 23.99 12.6757 23.99 12.6757C23.99 12.6757 34.1251 12.6757 36.6637 13.3753C38.0431 13.7352 39.1424 14.8345 39.5022 16.2138C40.2018 18.7525 40.1819 24.03 40.1819 24.03C40.1819 24.03 40.1818 29.2875 39.5022 31.8063C39.1424 33.2056 38.0431 34.2849 36.6637 34.6647C34.1251 35.3244 23.99 35.3244 23.99 35.3244C23.99 35.3244 13.895 35.3244 11.3362 34.6447C9.95692 34.2649 8.85761 33.1656 8.4778 31.7863C7.81813 29.2875 7.81812 24.01 7.81812 24.01C7.81812 24.01 7.81813 18.7525 8.4778 16.2138C8.85761 14.8345 9.97691 13.7152 11.3362 13.3353ZM29.1875 24.01L20.7716 19.1525V28.8475L29.1875 24.01Z" fill="black"/>
</svg>
